<svg id="Capa_1" enable-background="new 0 0 512 512" height="512" viewBox="0 0 512 512" width="512" xmlns="http://www.w3.org/2000/svg"><g><path d="m226 364.58v-274.58h-30v274.58c-17.459 6.192-30 22.865-30 42.42 0 24.813 20.187 45 45 45s45-20.187 45-45c0-19.555-12.541-36.228-30-42.42zm-15 57.42c-8.271 0-15-6.729-15-15s6.729-15 15-15 15 6.729 15 15-6.729 15-15 15z"/><path d="m211 0c-41.355 0-75 33.645-75 75v259.034c-19.143 19.631-30 45.859-30 72.966 0 57.897 47.103 105 105 105s105-47.103 105-105c0-27.107-10.857-53.335-30-72.966v-259.034c0-41.355-33.645-75-75-75zm0 482c-41.355 0-75-33.645-75-75 0-38.417 28.282-57.703 30-59.92v-272.08c0-24.813 20.187-45 45-45s45 20.187 45 45v272.08c1.769 2.283 30 21.266 30 59.92 0 41.355-33.645 75-75 75z"/><path d="m316 91h60v30h-60z"/><path d="m316 151h90v30h-90z"/><path d="m316 211h60v30h-60z"/><path d="m316 271h90v30h-90z"/></g></svg>